# This file uses centimeters as units for non-parametric coordinates.

mtllib fan_crease.mtl
g default
v -2.735973 0.000000 -1.000000
v -2.735973 0.000000 1.000000
v -0.735973 0.000000 1.000000
v -0.735973 0.000000 -1.000000
v -2.721048 0.000000 -0.999851
v -2.691648 0.000000 -0.998663
v -2.662848 0.000000 -0.996312
v -2.634648 0.000000 -0.992822
v -2.607048 0.000000 -0.988214
v -2.580048 0.000000 -0.982516
v -2.553648 0.000000 -0.975748
v -2.527848 0.000000 -0.967938
v -2.502648 0.000000 -0.959107
v -2.478048 0.000000 -0.949279
v -2.454048 0.000000 -0.938480
v -2.430648 0.000000 -0.926733
v -2.407848 0.000000 -0.914063
v -2.385648 0.000000 -0.900491
v -2.364048 0.000000 -0.886045
v -2.343048 0.000000 -0.870745
v -2.322648 0.000000 -0.854618
v -2.302848 0.000000 -0.837687
v -2.283648 0.000000 -0.819977
v -2.265048 0.000000 -0.801509
v -2.247048 0.000000 -0.782310
v -2.229648 0.000000 -0.762403
v -2.212848 0.000000 -0.741813
v -2.196648 0.000000 -0.720562
v -2.181048 0.000000 -0.698674
v -2.166048 0.000000 -0.676175
v -2.151648 0.000000 -0.653089
v -2.137848 0.000000 -0.629438
v -2.124648 0.000000 -0.605246
v -2.112048 0.000000 -0.580540
v -2.100048 0.000000 -0.555341
v -2.088648 0.000000 -0.529674
v -2.077848 0.000000 -0.503563
v -2.067648 0.000000 -0.477031
v -2.058048 0.000000 -0.450105
v -2.049048 0.000000 -0.422805
v -2.040648 0.000000 -0.395158
v -2.032848 0.000000 -0.367188
v -2.025648 0.000000 -0.338917
v -2.019048 0.000000 -0.310369
v -2.013048 0.000000 -0.281570
v -2.007648 0.000000 -0.252544
v -2.002848 0.000000 -0.223312
v -1.998648 0.000000 -0.193901
v -1.995048 0.000000 -0.164335
v -1.992048 0.000000 -0.134635
v -1.989648 0.000000 -0.104828
v -1.987848 0.000000 -0.074938
v -1.986648 0.000000 -0.044987
v -1.986048 0.000000 -0.014999
v -1.986048 0.000000 0.014999
v -1.986648 0.000000 0.044987
v -1.987848 0.000000 0.074938
v -1.989648 0.000000 0.104828
v -1.992048 0.000000 0.134635
v -1.995048 0.000000 0.164335
v -1.998648 0.000000 0.193901
v -2.002848 0.000000 0.223312
v -2.007648 0.000000 0.252544
v -2.013048 0.000000 0.281570
v -2.019048 0.000000 0.310369
v -2.025648 0.000000 0.338917
v -2.032848 0.000000 0.367188
v -2.040648 0.000000 0.395158
v -2.049048 0.000000 0.422805
v -2.058048 0.000000 0.450105
v -2.067648 0.000000 0.477031
v -2.077848 0.000000 0.503563
v -2.088648 0.000000 0.529674
v -2.100048 0.000000 0.555341
v -2.112048 0.000000 0.580540
v -2.124648 0.000000 0.605246
v -2.137848 0.000000 0.629438
v -2.151648 0.000000 0.653089
v -2.166048 0.000000 0.676175
v -2.181048 0.000000 0.698674
v -2.196648 0.000000 0.720562
v -2.212848 0.000000 0.741813
v -2.229648 0.000000 0.762403
v -2.247048 0.000000 0.782310
v -2.265048 0.000000 0.801509
v -2.283648 0.000000 0.819977
v -2.302848 0.000000 0.837687
v -2.322648 0.000000 0.854618
v -2.343048 0.000000 0.870745
v -2.364048 0.000000 0.886045
v -2.385648 0.000000 0.900491
v -2.407848 0.000000 0.914063
v -2.430648 0.000000 0.926733
v -2.454048 0.000000 0.938480
v -2.478048 0.000000 0.949279
v -2.502648 0.000000 0.959107
v -2.527848 0.000000 0.967938
v -2.553648 0.000000 0.975748
v -2.580048 0.000000 0.982516
v -2.607048 0.000000 0.988214
v -2.634648 0.000000 0.992822
v -2.662848 0.000000 0.996312
v -2.691648 0.000000 0.998663
v -2.721048 0.000000 0.999851
vt 0.000000 0.000000
vt 1.000000 0.000000
vt 1.000000 1.000000
vt 0.000000 1.000000
vt 0.000075 0.007463
vt 0.000668 0.022162
vt 0.001844 0.036563
vt 0.003589 0.050662
vt 0.005893 0.064463
vt 0.008742 0.077962
vt 0.012126 0.091163
vt 0.016031 0.104062
vt 0.020447 0.116663
vt 0.025360 0.128962
vt 0.030760 0.140963
vt 0.036633 0.152662
vt 0.042969 0.164063
vt 0.049754 0.175162
vt 0.056978 0.185962
vt 0.064627 0.196463
vt 0.072691 0.206663
vt 0.081156 0.216563
vt 0.090012 0.226162
vt 0.099245 0.235462
vt 0.108845 0.244462
vt 0.118798 0.253163
vt 0.129094 0.261562
vt 0.139719 0.269662
vt 0.150663 0.277462
vt 0.161912 0.284963
vt 0.173456 0.292162
vt 0.185281 0.299062
vt 0.197377 0.305663
vt 0.209730 0.311962
vt 0.222330 0.317962
vt 0.235163 0.323663
vt 0.248219 0.329063
vt 0.261484 0.334163
vt 0.274948 0.338962
vt 0.288597 0.343462
vt 0.302421 0.347663
vt 0.316406 0.351563
vt 0.330542 0.355163
vt 0.344815 0.358463
vt 0.359215 0.361463
vt 0.373728 0.364163
vt 0.388344 0.366562
vt 0.403049 0.368663
vt 0.417833 0.370463
vt 0.432682 0.371962
vt 0.447586 0.373163
vt 0.462531 0.374062
vt 0.477507 0.374663
vt 0.492500 0.374963
vt 0.507500 0.374963
vt 0.522493 0.374663
vt 0.537469 0.374062
vt 0.552414 0.373163
vt 0.567318 0.371962
vt 0.582167 0.370463
vt 0.596951 0.368663
vt 0.611656 0.366562
vt 0.626272 0.364163
vt 0.640785 0.361463
vt 0.655185 0.358463
vt 0.669458 0.355163
vt 0.683594 0.351563
vt 0.697579 0.347662
vt 0.711403 0.343462
vt 0.725052 0.338962
vt 0.738516 0.334163
vt 0.751781 0.329063
vt 0.764837 0.323663
vt 0.777670 0.317962
vt 0.790270 0.311962
vt 0.802623 0.305663
vt 0.814719 0.299062
vt 0.826544 0.292162
vt 0.838088 0.284963
vt 0.849337 0.277462
vt 0.860281 0.269662
vt 0.870906 0.261562
vt 0.881202 0.253163
vt 0.891155 0.244462
vt 0.900755 0.235462
vt 0.909988 0.226162
vt 0.918844 0.216563
vt 0.927309 0.206663
vt 0.935373 0.196463
vt 0.943022 0.185962
vt 0.950246 0.175162
vt 0.957031 0.164063
vt 0.963367 0.152662
vt 0.969240 0.140963
vt 0.974640 0.128962
vt 0.979553 0.116663
vt 0.983969 0.104062
vt 0.987874 0.091163
vt 0.991258 0.077962
vt 0.994107 0.064463
vt 0.996411 0.050662
vt 0.998156 0.036563
vt 0.999332 0.022162
vt 0.999925 0.007463
vn 0.000000 1.000000 0.000000
vn 0.000000 1.000000 0.000000
vn 0.000000 1.000000 0.000000
vn 0.000000 1.000000 0.000000
vn 0.000000 1.000000 0.000000
vn 0.000000 1.000000 0.000000
vn 0.000000 1.000000 0.000000
vn 0.000000 1.000000 0.000000
vn 0.000000 1.000000 0.000000
vn 0.000000 1.000000 0.000000
vn 0.000000 1.000000 0.000000
vn 0.000000 1.000000 0.000000
vn 0.000000 1.000000 0.000000
vn 0.000000 1.000000 0.000000
vn 0.000000 1.000000 0.000000
vn 0.000000 1.000000 0.000000
vn 0.000000 1.000000 0.000000
vn 0.000000 1.000000 0.000000
vn 0.000000 1.000000 0.000000
vn 0.000000 1.000000 0.000000
vn 0.000000 1.000000 0.000000
vn 0.000000 1.000000 0.000000
vn 0.000000 1.000000 0.000000
vn 0.000000 1.000000 0.000000
vn 0.000000 1.000000 0.000000
vn 0.000000 1.000000 0.000000
vn 0.000000 1.000000 0.000000
vn 0.000000 1.000000 0.000000
vn 0.000000 1.000000 0.000000
vn 0.000000 1.000000 0.000000
vn 0.000000 1.000000 0.000000
vn 0.000000 1.000000 0.000000
vn 0.000000 1.000000 0.000000
vn 0.000000 1.000000 0.000000
vn 0.000000 1.000000 0.000000
vn 0.000000 1.000000 0.000000
vn 0.000000 1.000000 0.000000
vn 0.000000 1.000000 0.000000
vn 0.000000 1.000000 0.000000
vn 0.000000 1.000000 0.000000
vn 0.000000 1.000000 0.000000
vn 0.000000 1.000000 0.000000
vn 0.000000 1.000000 0.000000
vn 0.000000 1.000000 0.000000
vn 0.000000 1.000000 0.000000
vn 0.000000 1.000000 0.000000
vn 0.000000 1.000000 0.000000
vn 0.000000 1.000000 0.000000
vn 0.000000 1.000000 0.000000
vn 0.000000 1.000000 0.000000
vn 0.000000 1.000000 0.000000
vn 0.000000 1.000000 0.000000
vn 0.000000 1.000000 0.000000
vn 0.000000 1.000000 0.000000
vn 0.000000 1.000000 0.000000
vn 0.000000 1.000000 0.000000
vn 0.000000 1.000000 0.000000
vn 0.000000 1.000000 0.000000
vn 0.000000 1.000000 0.000000
vn 0.000000 1.000000 0.000000
vn 0.000000 1.000000 0.000000
vn 0.000000 1.000000 0.000000
vn 0.000000 1.000000 0.000000
vn 0.000000 1.000000 0.000000
vn 0.000000 1.000000 0.000000
vn 0.000000 1.000000 0.000000
vn 0.000000 1.000000 0.000000
vn 0.000000 1.000000 0.000000
vn 0.000000 1.000000 0.000000
vn 0.000000 1.000000 0.000000
vn 0.000000 1.000000 0.000000
vn 0.000000 1.000000 0.000000
vn 0.000000 1.000000 0.000000
vn 0.000000 1.000000 0.000000
vn 0.000000 1.000000 0.000000
vn 0.000000 1.000000 0.000000
vn 0.000000 1.000000 0.000000
vn 0.000000 1.000000 0.000000
vn 0.000000 1.000000 0.000000
vn 0.000000 1.000000 0.000000
vn 0.000000 1.000000 0.000000
vn 0.000000 1.000000 0.000000
vn 0.000000 1.000000 0.000000
vn 0.000000 1.000000 0.000000
vn 0.000000 1.000000 0.000000
vn 0.000000 1.000000 0.000000
vn 0.000000 1.000000 0.000000
vn 0.000000 1.000000 0.000000
vn 0.000000 1.000000 0.000000
vn 0.000000 1.000000 0.000000
vn 0.000000 1.000000 0.000000
vn 0.000000 1.000000 0.000000
vn 0.000000 1.000000 0.000000
vn 0.000000 1.000000 0.000000
vn 0.000000 1.000000 0.000000
vn 0.000000 1.000000 0.000000
vn 0.000000 1.000000 0.000000
vn 0.000000 1.000000 0.000000
vn 0.000000 1.000000 0.000000
vn 0.000000 1.000000 0.000000
vn 0.000000 1.000000 0.000000
vn 0.000000 1.000000 0.000000
vn 0.000000 1.000000 0.000000
vn 0.000000 1.000000 0.000000
vn 0.000000 1.000000 0.000000
vn 0.000000 1.000000 0.000000
vn 0.000000 1.000000 0.000000
vn 0.000000 1.000000 0.000000
vn 0.000000 1.000000 0.000000
vn 0.000000 1.000000 0.000000
vn 0.000000 1.000000 0.000000
vn 0.000000 1.000000 0.000000
vn 0.000000 1.000000 0.000000
vn 0.000000 1.000000 0.000000
vn 0.000000 1.000000 0.000000
vn 0.000000 1.000000 0.000000
vn 0.000000 1.000000 0.000000
vn 0.000000 1.000000 0.000000
vn 0.000000 1.000000 0.000000
vn 0.000000 1.000000 0.000000
vn 0.000000 1.000000 0.000000
vn 0.000000 1.000000 0.000000
vn 0.000000 1.000000 0.000000
vn 0.000000 1.000000 0.000000
vn 0.000000 1.000000 0.000000
vn 0.000000 1.000000 0.000000
vn 0.000000 1.000000 0.000000
vn 0.000000 1.000000 0.000000
vn 0.000000 1.000000 0.000000
vn 0.000000 1.000000 0.000000
vn 0.000000 1.000000 0.000000
vn 0.000000 1.000000 0.000000
vn 0.000000 1.000000 0.000000
vn 0.000000 1.000000 0.000000
vn 0.000000 1.000000 0.000000
vn 0.000000 1.000000 0.000000
vn 0.000000 1.000000 0.000000
vn 0.000000 1.000000 0.000000
vn 0.000000 1.000000 0.000000
vn 0.000000 1.000000 0.000000
vn 0.000000 1.000000 0.000000
vn 0.000000 1.000000 0.000000
vn 0.000000 1.000000 0.000000
vn 0.000000 1.000000 0.000000
vn 0.000000 1.000000 0.000000
vn 0.000000 1.000000 0.000000
vn 0.000000 1.000000 0.000000
vn 0.000000 1.000000 0.000000
vn 0.000000 1.000000 0.000000
vn 0.000000 1.000000 0.000000
vn 0.000000 1.000000 0.000000
vn 0.000000 1.000000 0.000000
vn 0.000000 1.000000 0.000000
vn 0.000000 1.000000 0.000000
vn 0.000000 1.000000 0.000000
vn 0.000000 1.000000 0.000000
vn 0.000000 1.000000 0.000000
vn 0.000000 1.000000 0.000000
vn 0.000000 1.000000 0.000000
vn 0.000000 1.000000 0.000000
vn 0.000000 1.000000 0.000000
vn 0.000000 1.000000 0.000000
vn 0.000000 1.000000 0.000000
vn 0.000000 1.000000 0.000000
vn 0.000000 1.000000 0.000000
vn 0.000000 1.000000 0.000000
vn 0.000000 1.000000 0.000000
vn 0.000000 1.000000 0.000000
vn 0.000000 1.000000 0.000000
vn 0.000000 1.000000 0.000000
vn 0.000000 1.000000 0.000000
vn 0.000000 1.000000 0.000000
vn 0.000000 1.000000 0.000000
vn 0.000000 1.000000 0.000000
vn 0.000000 1.000000 0.000000
vn 0.000000 1.000000 0.000000
vn 0.000000 1.000000 0.000000
vn 0.000000 1.000000 0.000000
vn 0.000000 1.000000 0.000000
vn 0.000000 1.000000 0.000000
vn 0.000000 1.000000 0.000000
vn 0.000000 1.000000 0.000000
vn 0.000000 1.000000 0.000000
vn 0.000000 1.000000 0.000000
vn 0.000000 1.000000 0.000000
vn 0.000000 1.000000 0.000000
vn 0.000000 1.000000 0.000000
vn 0.000000 1.000000 0.000000
vn 0.000000 1.000000 0.000000
vn 0.000000 1.000000 0.000000
vn 0.000000 1.000000 0.000000
vn 0.000000 1.000000 0.000000
vn 0.000000 1.000000 0.000000
vn 0.000000 1.000000 0.000000
vn 0.000000 1.000000 0.000000
vn 0.000000 1.000000 0.000000
vn 0.000000 1.000000 0.000000
vn 0.000000 1.000000 0.000000
vn 0.000000 1.000000 0.000000
vn 0.000000 1.000000 0.000000
vn 0.000000 1.000000 0.000000
vn 0.000000 1.000000 0.000000
vn 0.000000 1.000000 0.000000
vn 0.000000 1.000000 0.000000
vn 0.000000 1.000000 0.000000
vn 0.000000 1.000000 0.000000
s 1
g myPaper
usemtl initialShadingGroup
f 1/1/1 5/5/2 4/4/3
f 5/5/2 6/6/4 4/4/3
f 6/6/4 7/7/5 4/4/3
f 7/7/5 8/8/6 4/4/3
f 8/8/6 9/9/7 4/4/3
f 9/9/7 10/10/8 4/4/3
f 2/2/9 3/3/10 104/104/11
f 104/104/11 3/3/10 103/103/12
f 103/103/12 3/3/10 102/102/13
f 102/102/13 3/3/10 101/101/14
f 101/101/14 3/3/10 100/100/15
f 100/100/15 3/3/10 99/99/16
f 10/10/8 11/11/17 4/4/3
f 11/11/17 12/12/18 4/4/3
f 12/12/18 13/13/19 4/4/3
f 99/99/16 3/3/10 98/98/20
f 98/98/20 3/3/10 97/97/21
f 97/97/21 3/3/10 96/96/22
f 13/13/19 14/14/23 4/4/3
f 96/96/22 3/3/10 95/95/24
f 14/14/23 15/15/25 4/4/3
f 15/15/25 16/16/26 4/4/3
f 95/95/24 3/3/10 94/94/27
f 94/94/27 3/3/10 93/93/28
f 16/16/26 17/17/29 4/4/3
f 93/93/28 3/3/10 92/92/30
f 17/17/29 18/18/31 4/4/3
f 92/92/30 3/3/10 91/91/32
f 18/18/31 19/19/33 4/4/3
f 91/91/32 3/3/10 90/90/34
f 19/19/33 20/20/35 4/4/3
f 90/90/34 3/3/10 89/89/36
f 20/20/35 21/21/37 4/4/3
f 89/89/36 3/3/10 88/88/38
f 21/21/37 22/22/39 4/4/3
f 88/88/38 3/3/10 87/87/40
f 22/22/39 23/23/41 4/4/3
f 87/87/40 3/3/10 86/86/42
f 23/23/41 24/24/43 4/4/3
f 86/86/42 3/3/10 85/85/44
f 24/24/43 25/25/45 4/4/3
f 85/85/44 3/3/10 84/84/46
f 25/25/45 26/26/47 4/4/3
f 84/84/46 3/3/10 83/83/48
f 26/26/47 27/27/49 4/4/3
f 83/83/48 3/3/10 82/82/50
f 27/27/49 28/28/51 4/4/3
f 82/82/50 3/3/10 81/81/52
f 28/28/51 29/29/53 4/4/3
f 81/81/52 3/3/10 80/80/54
f 29/29/53 30/30/55 4/4/3
f 80/80/54 3/3/10 79/79/56
f 30/30/55 31/31/57 4/4/3
f 79/79/56 3/3/10 78/78/58
f 31/31/57 32/32/59 4/4/3
f 78/78/58 3/3/10 77/77/60
f 3/3/10 4/4/3 77/77/60
f 77/77/60 4/4/3 76/76/61
f 76/76/61 4/4/3 75/75/62
f 75/75/62 4/4/3 74/74/63
f 74/74/63 4/4/3 73/73/64
f 73/73/64 4/4/3 72/72/65
f 72/72/65 4/4/3 71/71/66
f 71/71/66 4/4/3 70/70/67
f 70/70/67 4/4/3 69/69/68
f 69/69/68 4/4/3 68/68/69
f 68/68/69 4/4/3 67/67/70
f 67/67/70 4/4/3 66/66/71
f 66/66/71 4/4/3 65/65/72
f 65/65/72 4/4/3 64/64/73
f 64/64/73 4/4/3 63/63/74
f 63/63/74 4/4/3 62/62/75
f 62/62/75 4/4/3 61/61/76
f 61/61/76 4/4/3 60/60/77
f 60/60/77 4/4/3 59/59/78
f 59/59/78 4/4/3 58/58/79
f 58/58/79 4/4/3 57/57/80
f 57/57/80 4/4/3 56/56/81
f 56/56/81 4/4/3 55/55/82
f 55/55/82 4/4/3 54/54/83
f 54/54/83 4/4/3 53/53/84
f 53/53/84 4/4/3 52/52/85
f 52/52/85 4/4/3 51/51/86
f 51/51/86 4/4/3 50/50/87
f 50/50/87 4/4/3 49/49/88
f 49/49/88 4/4/3 48/48/89
f 48/48/89 4/4/3 47/47/90
f 47/47/90 4/4/3 46/46/91
f 46/46/91 4/4/3 45/45/92
f 45/45/92 4/4/3 44/44/93
f 44/44/93 4/4/3 43/43/94
f 32/32/59 33/33/95 4/4/3
f 43/43/94 4/4/3 42/42/96
f 33/33/95 34/34/97 4/4/3
f 42/42/96 4/4/3 41/41/98
f 34/34/97 35/35/99 4/4/3
f 41/41/98 4/4/3 40/40/100
f 35/35/99 36/36/101 4/4/3
f 40/40/100 4/4/3 39/39/102
f 36/36/101 37/37/103 4/4/3
f 39/39/102 4/4/3 38/38/104
f 37/37/103 38/38/104 4/4/3
s 3
f 1/1/105 2/2/106 5/5/107
f 5/5/107 2/2/106 6/6/108
f 2/2/106 104/104/109 6/6/108
f 6/6/108 104/104/109 7/7/110
f 7/7/110 104/104/109 8/8/111
f 8/8/111 104/104/109 9/9/112
f 9/9/112 104/104/109 10/10/113
f 10/10/113 104/104/109 11/11/114
f 11/11/114 104/104/109 12/12/115
f 12/12/115 104/104/109 13/13/116
f 13/13/116 104/104/109 14/14/117
f 14/14/117 104/104/109 15/15/118
f 15/15/118 104/104/109 16/16/119
f 16/16/119 104/104/109 17/17/120
f 17/17/120 104/104/109 18/18/121
f 18/18/121 104/104/109 19/19/122
f 19/19/122 104/104/109 20/20/123
f 20/20/123 104/104/109 21/21/124
f 21/21/124 104/104/109 22/22/125
f 22/22/125 104/104/109 23/23/126
f 23/23/126 104/104/109 24/24/127
f 24/24/127 104/104/109 25/25/128
f 25/25/128 104/104/109 26/26/129
f 26/26/129 104/104/109 27/27/130
f 27/27/130 104/104/109 28/28/131
f 28/28/131 104/104/109 29/29/132
f 29/29/132 104/104/109 30/30/133
f 30/30/133 104/104/109 31/31/134
f 31/31/134 104/104/109 32/32/135
f 32/32/135 104/104/109 33/33/136
f 33/33/136 104/104/109 34/34/137
f 34/34/137 104/104/109 35/35/138
f 35/35/138 104/104/109 36/36/139
f 36/36/139 104/104/109 37/37/140
f 37/37/140 104/104/109 38/38/141
f 38/38/141 104/104/109 39/39/142
f 39/39/142 104/104/109 40/40/143
f 40/40/143 104/104/109 41/41/144
f 41/41/144 104/104/109 42/42/145
f 42/42/145 104/104/109 43/43/146
f 43/43/146 104/104/109 44/44/147
f 44/44/147 104/104/109 45/45/148
f 45/45/148 104/104/109 46/46/149
f 46/46/149 104/104/109 47/47/150
f 47/47/150 104/104/109 48/48/151
f 48/48/151 104/104/109 49/49/152
f 49/49/152 104/104/109 50/50/153
f 50/50/153 104/104/109 51/51/154
f 51/51/154 104/104/109 52/52/155
f 52/52/155 104/104/109 53/53/156
f 53/53/156 104/104/109 54/54/157
f 54/54/157 104/104/109 55/55/158
f 55/55/158 104/104/109 56/56/159
f 56/56/159 104/104/109 57/57/160
f 57/57/160 104/104/109 58/58/161
f 58/58/161 104/104/109 59/59/162
f 59/59/162 104/104/109 60/60/163
f 60/60/163 104/104/109 61/61/164
f 61/61/164 104/104/109 62/62/165
f 62/62/165 104/104/109 63/63/166
f 63/63/166 104/104/109 64/64/167
f 64/64/167 104/104/109 65/65/168
f 65/65/168 104/104/109 66/66/169
f 66/66/169 104/104/109 67/67/170
f 67/67/170 104/104/109 68/68/171
f 68/68/171 104/104/109 69/69/172
f 69/69/172 104/104/109 70/70/173
f 70/70/173 104/104/109 71/71/174
f 71/71/174 104/104/109 72/72/175
f 72/72/175 104/104/109 73/73/176
f 73/73/176 104/104/109 74/74/177
f 74/74/177 104/104/109 75/75/178
f 75/75/178 104/104/109 76/76/179
f 76/76/179 104/104/109 77/77/180
f 77/77/180 104/104/109 78/78/181
f 78/78/181 104/104/109 79/79/182
f 104/104/109 103/103/183 79/79/182
f 79/79/182 103/103/183 80/80/184
f 80/80/184 103/103/183 81/81/185
f 103/103/183 102/102/186 81/81/185
f 102/102/186 101/101/187 81/81/185
f 101/101/187 100/100/188 81/81/185
f 81/81/185 100/100/188 82/82/189
f 100/100/188 99/99/190 82/82/189
f 99/99/190 98/98/191 82/82/189
f 98/98/191 97/97/192 82/82/189
f 97/97/192 96/96/193 82/82/189
f 82/82/189 96/96/193 83/83/194
f 96/96/193 95/95/195 83/83/194
f 95/95/195 94/94/196 83/83/194
f 94/94/196 93/93/197 83/83/194
f 93/93/197 92/92/198 83/83/194
f 92/92/198 91/91/199 83/83/194
f 91/91/199 90/90/200 83/83/194
f 90/90/200 89/89/201 83/83/194
f 89/89/201 88/88/202 83/83/194
f 88/88/202 87/87/203 83/83/194
f 87/87/203 86/86/204 83/83/194
f 86/86/204 85/85/205 83/83/194
f 85/85/205 84/84/206 83/83/194
